<svg width="530" height="429" viewBox="0 0 530 429" fill="none" xmlns="http://www.w3.org/2000/svg">
<path d="M252.499 0.438C255.51 0.294 258.522 0.149 261.624 0C265.027 0.217 265.027 0.217 268.499 0.438C268.829 1.758 269.159 3.078 269.499 4.438C267.519 5.098 265.539 5.758 263.499 6.438C260.591 7.139 257.684 7.841 254.688 8.563C251.326 9.512 247.963 10.461 244.499 11.438C241.591 12.655 238.684 13.872 235.688 15.126C232.986 16.549 230.283 17.972 227.499 19.438C225.086 21.026 222.674 22.614 220.188 24.25C217.98 25.962 215.773 27.674 213.499 29.438C211.416 31.212 209.333 32.986 207.188 34.813C205.311 36.669 203.433 38.526 201.499 40.438C199.932 42.356 198.364 44.274 196.749 46.25C195.346 48.292 193.944 50.334 192.499 52.438C191.117 54.665 189.735 56.893 188.311 59.188C187.053 61.58 185.795 63.973 184.499 66.438C183.406 69.057 182.314 71.677 181.188 74.376C180.3 77.036 179.413 79.697 178.499 82.438C177.509 87.388 176.519 92.338 175.499 97.438C175.396 102.615 175.293 107.792 175.188 113.126C175.341 120.705 175.341 120.705 175.499 128.438C176.159 132.398 176.819 136.358 177.499 140.438C178.551 143.552 179.604 146.667 180.688 149.876C181.946 153.031 183.203 156.187 184.499 159.438C186.809 163.728 189.119 168.018 191.499 172.438C191.581 165.817 191.664 159.197 191.749 152.376C191.996 145.466 192.244 138.557 192.499 131.438C193.819 129.128 195.139 126.818 196.499 124.438C197.365 123.654 198.231 122.871 199.124 122.063C199.908 121.527 200.691 120.991 201.499 120.438C202.159 120.108 202.819 119.778 203.499 119.438C208.16 119.417 212.821 119.397 217.624 119.376C222.203 119.396 226.782 119.417 231.499 119.438C230.839 121.088 230.179 122.738 229.499 124.438C225.601 124.644 221.703 124.851 217.688 125.063C213.666 125.187 209.643 125.311 205.499 125.438C203.849 126.428 202.199 127.418 200.499 128.438C200.169 129.098 199.839 129.758 199.499 130.438C199.355 162.551 199.21 194.664 199.061 227.75C199.206 259.987 199.35 292.224 199.499 325.438C201.479 327.088 203.459 328.738 205.499 330.438C225.98 330.582 246.46 330.727 267.561 330.876C288.001 330.731 308.44 330.587 329.499 330.438C331.149 329.778 332.799 329.118 334.499 328.438C334.829 327.448 335.159 326.458 335.499 325.438C335.623 293.304 335.746 261.171 335.874 228.063C335.75 195.847 335.627 163.63 335.499 130.438C333.024 127.963 333.024 127.963 330.499 125.438C326.498 125.273 322.496 125.108 318.374 124.938C314.455 124.773 310.537 124.608 306.499 124.438C305.509 122.788 304.519 121.138 303.499 119.438C307.83 119.376 312.162 119.314 316.624 119.25C323.492 119.343 323.492 119.343 330.499 119.438C332.479 120.428 334.459 121.418 336.499 122.438C337.891 123.923 337.891 123.923 339.311 125.438C340.033 126.428 340.755 127.418 341.499 128.438C341.829 129.428 342.159 130.418 342.499 131.438C342.53 153.311 342.53 153.311 342.561 175.626C342.541 190.084 342.52 204.542 342.499 219.438C347.449 216.798 352.399 214.158 357.499 211.438C360.809 209.087 360.809 209.087 364.188 206.688C366.27 204.956 368.353 203.223 370.499 201.438C372.541 199.54 374.583 197.643 376.688 195.688C378.605 193.626 380.524 191.563 382.5 189.438C384.253 187.19 386.005 184.942 387.811 182.626C389.358 180.254 390.906 177.882 392.5 175.438C393.779 172.942 395.058 170.447 396.375 167.876C397.406 165.421 398.438 162.967 399.5 160.438C400.645 156.973 400.644 156.973 401.811 153.438C402.647 150.468 402.648 150.468 403.5 147.438C403.913 146.015 404.325 144.592 404.75 143.126C405.121 141.795 405.121 141.795 405.5 140.438C407.15 140.768 408.8 141.098 410.5 141.438C410.665 144.057 410.83 146.677 411 149.376C410.835 152.696 410.67 156.017 410.5 159.438C410.129 162.346 409.757 165.254 409.375 168.25C408.756 171.282 408.138 174.314 407.5 177.438C406.634 180.862 405.767 184.285 404.875 187.813C403.761 191.319 402.648 194.825 401.5 198.438C400.056 201.924 398.612 205.409 397.125 209C394.836 213.672 394.836 213.672 392.5 218.438C391.139 220.645 389.777 222.852 388.375 225.126C387.096 226.879 385.817 228.632 384.5 230.438C383.366 231.964 382.23 233.491 381.061 235.063C379.886 236.507 378.711 237.95 377.5 239.438C376.036 241.109 374.57 242.779 373.061 244.5C370.803 246.945 370.803 246.945 368.499 249.438C367.323 250.717 366.148 251.996 364.938 253.313C363.472 254.674 362.008 256.035 360.499 257.438C356.353 260.625 356.353 260.625 352.124 263.876C349.608 265.711 347.091 267.547 344.499 269.438C343.839 269.768 343.179 270.098 342.499 270.438C342.344 284.112 342.345 284.112 342.188 298.063C341.847 312.109 341.846 312.109 341.499 326.438C339.024 329.903 339.024 329.903 336.499 333.438C334.519 334.428 332.539 335.418 330.499 336.438C309.75 336.603 289.002 336.768 267.624 336.938C246.793 336.773 225.961 336.608 204.499 336.438C201.859 334.788 199.219 333.138 196.499 331.438C195.509 329.458 194.519 327.478 193.499 325.438C193.54 316.775 193.581 308.113 193.624 299.188C193.583 290.69 193.542 282.193 193.499 273.438C191.849 272.778 190.199 272.118 188.499 271.438C186.705 270.324 184.91 269.21 183.061 268.063C179.813 265.774 179.813 265.774 176.499 263.438C174.168 261.541 171.839 259.643 169.438 257.688C167.148 255.626 164.858 253.563 162.499 251.438C160.643 249.561 158.787 247.684 156.874 245.75C155.1 243.667 153.326 241.584 151.499 239.438C149.457 236.695 147.415 233.952 145.311 231.126C143.393 228.259 141.475 225.392 139.499 222.438C138.055 219.922 136.611 217.405 135.124 214.813C133.928 212.379 132.731 209.945 131.499 207.438C130.427 204.984 129.354 202.529 128.249 200C127.341 197.505 126.434 195.009 125.499 192.438C124.757 189.757 124.014 187.075 123.249 184.313C122.672 181.714 122.094 179.116 121.499 176.438C120.839 172.148 120.179 167.858 119.499 163.438C119.396 158.282 119.293 153.126 119.188 147.813C119.291 142.409 119.393 137.005 119.499 131.438C119.85 128.076 120.2 124.714 120.561 121.25C121.201 118.342 121.84 115.434 122.499 112.438C123.551 108.911 124.604 105.384 125.688 101.75C126.946 98.347 128.203 94.944 129.499 91.438C130.757 88.695 132.015 85.952 133.311 83.126C134.693 80.589 136.075 78.052 137.499 75.438C139.108 72.695 140.716 69.952 142.374 67.126C144.065 64.589 145.757 62.052 147.499 59.438C149.211 57.458 150.923 55.478 152.688 53.438C154.276 51.788 155.863 50.138 157.499 48.438C158.633 47.077 159.768 45.716 160.938 44.313C162.112 43.034 163.288 41.755 164.499 40.438C166.293 38.912 168.089 37.385 169.938 35.813C171.773 34.369 173.608 32.926 175.499 31.438C176.736 30.448 177.974 29.458 179.249 28.438C180.652 27.448 182.054 26.458 183.499 25.438C185.768 23.994 188.037 22.551 190.374 21.063C193.055 19.537 195.736 18.01 198.499 16.438C201.428 15.035 204.356 13.633 207.374 12.188C211.891 10.332 211.891 10.332 216.499 8.438C220.676 7.046 220.676 7.046 224.938 5.626C227.763 4.904 230.588 4.182 233.499 3.438C236.655 2.84 239.81 2.242 243.061 1.626C247.733 1.038 247.733 1.038 252.499 0.438Z" fill="#DDC8A2"/>
<path d="M311.499 131.438C312.819 131.438 314.139 131.438 315.499 131.438C316.18 133.542 316.18 133.542 316.874 135.688C317.41 137.255 317.946 138.822 318.499 140.438C319.427 141.242 320.355 142.046 321.311 142.875C322.363 143.39 323.415 143.906 324.499 144.438C326.479 145.098 328.459 145.757 330.499 146.438C330.932 186.533 330.932 186.533 331.374 227.438C331.085 254.167 330.797 280.897 330.499 308.438C326.539 309.428 326.539 309.428 322.499 310.438C321.53 311.284 320.56 312.128 319.561 312.999C318.881 313.804 318.2 314.609 317.499 315.438C317.169 315.768 316.839 316.097 316.499 316.438C316.004 320.398 316.004 320.398 315.499 324.438C292.048 324.964 292.048 324.963 268.124 325.499C244.55 324.974 244.55 324.975 220.499 324.438C219.509 321.467 218.519 318.497 217.499 315.438C216.777 314.488 216.055 313.539 215.311 312.562C214.383 311.862 213.455 311.16 212.499 310.438C209.859 309.447 207.219 308.457 204.499 307.438C204.148 280.872 203.799 254.308 203.438 226.938C203.787 200.372 204.138 173.808 204.499 146.438C207.469 145.447 210.439 144.457 213.499 143.438C214.489 142.488 215.479 141.54 216.499 140.562C217.159 139.531 217.819 138.5 218.499 137.438C218.829 135.788 219.159 134.138 219.499 132.438C220.819 132.438 222.139 132.438 223.499 132.438C223.499 134.087 223.499 135.737 223.499 137.438C222.591 138.798 221.684 140.161 220.749 141.562C219.677 142.842 218.604 144.12 217.499 145.438C216.179 146.428 214.859 147.418 213.499 148.438C212.179 148.768 210.859 149.097 209.499 149.438C209.252 175.198 209.004 200.958 208.749 227.499C208.667 253.219 208.584 278.938 208.499 305.438C210.149 305.107 211.799 304.778 213.499 304.438C214.819 302.498 216.139 300.561 217.499 298.562C219.149 295.882 220.799 293.2 222.499 290.438C224.788 287.096 227.079 283.754 229.438 280.312C231.438 277.384 233.438 274.455 235.499 271.438C236.489 269.457 236.489 269.457 237.499 267.438C236.045 265.921 236.045 265.922 234.561 264.376C233.221 263.076 231.88 261.776 230.499 260.438C229.282 258.725 228.065 257.013 226.811 255.249C225.718 253.331 224.625 251.413 223.499 249.438C222.695 247.663 221.89 245.89 221.061 244.062C220.546 241.876 220.03 239.69 219.499 237.438C219.313 233.993 219.128 230.548 218.938 226.999C219.123 223.514 219.308 220.029 219.499 216.438C220.138 214.106 220.779 211.777 221.438 209.376C222.447 207.416 223.458 205.457 224.499 203.438C225.86 201.355 227.221 199.272 228.624 197.126C231.037 194.31 231.037 194.309 233.499 191.438C235.252 189.974 237.005 188.509 238.811 187C240.688 185.825 242.565 184.648 244.499 183.438C246.603 182.469 248.706 181.499 250.874 180.5C252.73 179.82 254.586 179.138 256.499 178.438C258.974 177.942 258.974 177.942 261.499 177.438C265.181 177.344 265.181 177.345 268.938 177.25C271.432 177.312 273.928 177.373 276.499 177.438C278.479 178.098 280.459 178.757 282.499 179.438C282.499 179.768 282.499 180.097 282.499 180.438C279.56 181.272 279.56 181.272 276.561 182.125C274.231 182.888 271.9 183.651 269.499 184.438C267.086 185.798 267.086 185.798 264.624 187.188C263.263 188.26 261.902 189.332 260.499 190.438C259.241 191.717 257.983 192.995 256.687 194.312C255.635 195.673 254.583 197.035 253.499 198.438C252.715 199.84 251.932 201.242 251.124 202.688C250.588 203.926 250.052 205.163 249.499 206.438C249.004 208.418 249.004 208.418 248.499 210.438C248.396 212.769 248.293 215.098 248.187 217.499C248.341 221.429 248.341 221.43 248.499 225.438C249.035 227.396 249.571 229.357 250.124 231.376C250.908 233.046 251.691 234.717 252.499 236.438C253.448 237.882 254.397 239.324 255.374 240.812C256.405 242.008 257.437 243.204 258.499 244.438C259.448 245.345 260.397 246.252 261.374 247.188C262.405 247.93 263.437 248.673 264.499 249.438C265.881 250.18 267.263 250.923 268.688 251.688C269.946 252.265 271.203 252.842 272.499 253.438C273.984 253.933 273.984 253.933 275.499 254.438C280.016 254.593 280.016 254.592 284.624 254.749C287.883 254.646 291.142 254.543 294.499 254.438C296.19 253.901 297.881 253.365 299.624 252.812C301.542 251.637 301.542 251.637 303.499 250.438C305.108 249.406 306.716 248.375 308.374 247.312C309.735 246.363 311.096 245.415 312.499 244.438C313.489 243.777 314.479 243.118 315.499 242.438C315.169 244.087 314.839 245.737 314.499 247.438C313.983 248.655 313.469 249.872 312.938 251.126C312.132 252.549 311.328 253.972 310.499 255.438C309.303 257.109 308.106 258.778 306.874 260.499C305.43 262.129 303.986 263.758 302.499 265.438C300.21 267.324 300.21 267.324 297.874 269.249C296.1 270.301 294.326 271.354 292.499 272.438C290.375 273.406 288.25 274.377 286.061 275.376C283.566 276.056 281.07 276.737 278.499 277.438C275.343 277.624 272.188 277.808 268.938 277.999C265.822 277.814 262.708 277.628 259.499 277.438C257.086 276.86 254.673 276.283 252.187 275.688C249.371 274.574 249.371 274.574 246.499 273.438C244.612 272.324 244.612 272.324 242.688 271.188C241.965 270.61 241.243 270.033 240.499 269.438C239.839 271.087 239.179 272.737 238.499 274.438C234.539 279.883 234.539 279.883 230.499 285.438C226.539 291.47 226.539 291.471 222.499 297.626C220.189 301.194 217.879 304.761 215.499 308.438C216.819 309.098 218.139 309.757 219.499 310.438C220.613 312.14 220.613 312.14 221.749 313.876C222.326 315.051 222.904 316.227 223.499 317.438C223.499 318.428 223.499 319.418 223.499 320.438C237.998 320.541 252.498 320.643 267.437 320.749C281.977 320.646 296.518 320.543 311.499 320.438C311.829 318.788 312.159 317.138 312.499 315.438C313.613 314.056 314.726 312.673 315.874 311.249C317.668 309.362 317.668 309.362 319.499 307.438C320.489 306.777 321.479 306.118 322.499 305.438C323.819 305.438 325.139 305.438 326.499 305.438C326.623 279.739 326.746 254.039 326.874 227.562C326.75 201.781 326.627 176 326.499 149.438C324.519 148.777 322.539 148.118 320.499 147.438C319.509 146.942 319.509 146.942 318.499 146.438C317.839 148.087 317.179 149.737 316.499 151.438C315.509 153.026 314.519 154.614 313.499 156.25C312.509 157.632 311.519 159.013 310.499 160.438C309.839 160.438 309.179 160.438 308.499 160.438C308.829 158.788 309.159 157.138 309.499 155.438C311.417 152.807 311.417 152.807 313.374 150.125C314.405 148.248 315.437 146.372 316.499 144.438C315.818 142.993 315.138 141.551 314.438 140.062C312.982 138.268 312.982 138.268 311.499 136.438C311.499 134.788 311.499 133.138 311.499 131.438Z" fill="#F3E3BA"/>
<path d="M266.5 27.4375C267.16 27.4375 267.82 27.4375 268.5 27.4375C269.696 34.5535 270.893 41.6685 272.125 48.9995C273.239 56.4045 274.352 63.8085 275.5 71.4375C275.5 73.7475 275.5 76.0575 275.5 78.4375C276.634 77.6945 277.769 76.9525 278.938 76.1875C280.773 74.9495 282.609 73.7125 284.5 72.4375C287.367 70.4165 290.234 68.3945 293.188 66.3125C295.931 64.3735 298.674 62.4355 301.5 60.4375C303.48 59.1175 305.46 57.7975 307.5 56.4375C306.84 57.7575 306.18 59.0775 305.5 60.4375C303.809 62.9125 302.118 65.3875 300.375 67.9375C298.436 70.7425 296.497 73.5475 294.5 76.4375C292.953 78.7475 291.406 81.0575 289.812 83.4375C288.173 85.9125 288.173 85.9125 286.5 88.4375C291.945 88.9325 291.945 88.9325 297.5 89.4375C307.493 91.1705 307.493 91.1705 317.688 92.9375C323.896 94.0925 330.104 95.2475 336.5 96.4375C336.5 96.7675 336.5 97.0975 336.5 97.4375C328.807 98.7785 321.114 100.118 313.188 101.499C301.462 103.449 301.462 103.449 289.5 105.438C288.51 105.438 287.52 105.438 286.5 105.438C287.944 107.624 289.388 109.81 290.875 112.062C292.731 114.826 294.587 117.591 296.5 120.438C299.315 124.305 299.315 124.304 302.188 128.249C303.611 130.291 305.034 132.333 306.5 134.438C306.17 135.098 305.84 135.757 305.5 136.438C303.149 134.643 300.798 132.848 298.375 130.999C295.446 128.834 292.518 126.668 289.5 124.438C286.86 122.704 284.22 120.972 281.5 119.188C279.52 117.949 277.54 116.712 275.5 115.438C275.17 119.727 274.84 124.017 274.5 128.438C273.263 135.769 273.263 135.769 272 143.249C270.763 150.272 270.763 150.273 269.5 157.438C269.005 161.398 269.005 161.398 268.5 165.438C267.84 165.438 267.18 165.438 266.5 165.438C266.046 162.282 265.592 159.127 265.125 155.876C264.589 151.771 264.053 147.667 263.5 143.438C262.778 139.292 262.056 135.147 261.312 130.876C260.714 127.431 260.116 123.987 259.5 120.438C259.5 118.788 259.5 117.138 259.5 115.438C256.592 117.418 253.684 119.398 250.688 121.438C247.326 123.747 243.964 126.057 240.5 128.438C238.293 130.026 236.086 131.613 233.812 133.249C232.389 134.301 230.966 135.354 229.5 136.438C229.005 135.447 229.005 135.447 228.5 134.438C229.16 134.438 229.82 134.438 230.5 134.438C231.16 132.788 231.82 131.138 232.5 129.438C234.418 126.694 236.336 123.952 238.312 121.126C240.354 118.259 242.396 115.391 244.5 112.438C246.15 109.797 247.8 107.158 249.5 104.438C246.2 104.438 242.9 104.438 239.5 104.438C233.416 103.488 227.331 102.54 221.062 101.562C215.267 100.531 209.471 99.4995 203.5 98.4375C202.51 97.7775 201.52 97.1175 200.5 96.4375C204.79 95.4475 209.08 94.4575 213.5 93.4375C218.986 92.5715 224.472 91.7045 230.125 90.8125C235.199 90.0285 240.273 89.2455 245.5 88.4375C246.49 88.1075 247.48 87.7775 248.5 87.4375C247.386 85.9315 246.273 84.4265 245.125 82.8755C243.599 80.7505 242.072 78.6265 240.5 76.4375C238.726 73.8185 236.952 71.1985 235.125 68.4995C233.599 66.1695 232.072 63.8385 230.5 61.4375C229.84 60.1175 229.18 58.7975 228.5 57.4375C231.965 59.4175 231.965 59.4175 235.5 61.4375C237.934 63.2115 240.367 64.9855 242.875 66.8125C245.391 68.6685 247.908 70.5255 250.5 72.4375C253.192 74.2625 253.192 74.2625 255.938 76.1255C257.113 76.8885 258.289 77.6515 259.5 78.4375C259.83 74.8075 260.16 71.1775 260.5 67.4375C261.469 60.6105 262.439 53.7835 263.438 46.7495C264.448 40.3765 265.459 34.0035 266.5 27.4375Z" fill="#F3E3BA"/>
<path d="M261.5 177.438C265.182 177.345 265.182 177.345 268.938 177.25C271.433 177.312 273.929 177.374 276.5 177.438C278.48 178.098 280.46 178.758 282.5 179.438C282.5 179.768 282.5 180.098 282.5 180.438C280.541 180.995 278.581 181.552 276.562 182.126C274.232 182.889 271.901 183.652 269.5 184.438C267.891 185.346 266.283 186.253 264.625 187.188C263.264 188.26 261.903 189.333 260.5 190.438C259.242 191.717 257.984 192.996 256.688 194.313C255.636 195.674 254.584 197.036 253.5 198.438C252.716 199.84 251.933 201.243 251.125 202.688C250.589 203.926 250.053 205.163 249.5 206.438C249.17 207.758 248.84 209.078 248.5 210.438C248.397 212.769 248.294 215.099 248.188 217.5C248.291 220.12 248.394 222.739 248.5 225.438C249.036 227.397 249.572 229.357 250.125 231.376C250.909 233.046 251.692 234.717 252.5 236.438C253.449 237.882 254.398 239.325 255.375 240.813C256.406 242.009 257.438 243.205 258.5 244.438C259.449 245.346 260.398 246.253 261.375 247.188C262.406 247.931 263.438 248.673 264.5 249.438C265.882 250.181 267.264 250.923 268.688 251.688C270.575 252.554 270.575 252.554 272.5 253.438C273.49 253.768 274.48 254.098 275.5 254.438C280.017 254.593 280.017 254.593 284.625 254.75C287.884 254.647 291.143 254.544 294.5 254.438C296.191 253.902 297.882 253.366 299.625 252.813C301.543 251.637 301.543 251.637 303.5 250.438C305.109 249.407 306.717 248.376 308.375 247.313C309.736 246.364 311.097 245.416 312.5 244.438C313.49 243.778 314.48 243.118 315.5 242.438C315.17 244.088 314.84 245.738 314.5 247.438C313.984 248.655 313.469 249.872 312.938 251.126C312.133 252.549 311.329 253.972 310.5 255.438C309.304 257.109 308.107 258.779 306.875 260.5C305.431 262.13 303.987 263.759 302.5 265.438C300.974 266.696 299.447 267.954 297.875 269.25C296.101 270.302 294.327 271.354 292.5 272.438C289.313 273.892 289.313 273.892 286.062 275.376C283.567 276.056 281.071 276.737 278.5 277.438C275.344 277.624 272.189 277.809 268.938 278C264.266 277.722 264.266 277.722 259.5 277.438C257.087 276.861 254.674 276.283 252.188 275.688C250.311 274.945 248.434 274.203 246.5 273.438C245.242 272.695 243.984 271.953 242.688 271.188C241.966 270.611 241.244 270.033 240.5 269.438C239.84 271.088 239.18 272.738 238.5 274.438C236.768 276.851 236.768 276.851 235 279.313C233.515 281.334 232.03 283.356 230.5 285.438C228.768 288.119 227.035 290.801 225.25 293.563C222.899 296.966 222.899 296.966 220.5 300.438C218.52 300.933 218.52 300.933 216.5 301.438C217.16 299.788 217.82 298.138 218.5 296.438C221.305 292.292 224.11 288.147 227 283.876C229.805 279.771 232.61 275.667 235.5 271.438C236.16 270.118 236.82 268.798 237.5 267.438C236.531 266.427 235.561 265.417 234.562 264.376C233.222 263.076 231.881 261.777 230.5 260.438C229.283 258.726 228.066 257.014 226.812 255.25C225.719 253.332 224.626 251.414 223.5 249.438C222.696 247.664 221.891 245.89 221.062 244.063C220.547 241.877 220.031 239.69 219.5 237.438C219.314 233.994 219.129 230.549 218.938 227C219.123 223.515 219.309 220.029 219.5 216.438C220.139 214.107 220.779 211.777 221.438 209.376C222.448 207.416 223.459 205.457 224.5 203.438C225.861 201.355 227.222 199.272 228.625 197.126C230.234 195.249 231.842 193.372 233.5 191.438C235.253 189.974 237.006 188.509 238.812 187C240.689 185.825 242.566 184.649 244.5 183.438C246.604 182.469 248.707 181.499 250.875 180.5C253.659 179.48 253.659 179.48 256.5 178.438C258.15 178.108 259.8 177.778 261.5 177.438ZM257.5 183.438C254.984 184.572 252.467 185.707 249.875 186.876C245.729 189.134 245.729 189.134 241.5 191.438C239.974 192.717 238.447 193.996 236.875 195.313C235.761 196.674 234.648 198.036 233.5 199.438C232.386 201.15 231.273 202.862 230.125 204.626C229.259 206.214 228.393 207.802 227.5 209.438C226.51 211.913 226.51 211.913 225.5 214.438C225.17 216.418 224.84 218.398 224.5 220.438C224.397 222.975 224.294 225.512 224.188 228.126C224.291 230.869 224.394 233.612 224.5 236.438C225.016 238.356 225.531 240.274 226.062 242.25C226.867 243.962 227.671 245.674 228.5 247.438C229.572 249.335 230.645 251.233 231.75 253.188C233.606 255.787 233.606 255.787 235.5 258.438C236.717 259.696 237.934 260.954 239.188 262.25C240.611 263.302 242.034 264.354 243.5 265.438C245.542 266.552 247.584 267.666 249.688 268.813C251.606 269.679 253.524 270.546 255.5 271.438C257.15 271.768 258.8 272.098 260.5 272.438C263.037 272.52 265.574 272.603 268.188 272.688C272.302 272.564 272.302 272.564 276.5 272.438C278.274 272.067 280.048 271.695 281.875 271.313C283.401 270.694 284.928 270.075 286.5 269.438C288.274 268.489 290.048 267.541 291.875 266.563C293.401 265.532 294.928 264.5 296.5 263.438C297.366 262.489 298.232 261.541 299.125 260.563C299.579 259.862 300.033 259.16 300.5 258.438C298.365 258.933 298.365 258.933 296.188 259.438C293.372 259.933 293.372 259.933 290.5 260.438C287.87 260.624 287.87 260.624 285.188 260.813C282.372 260.627 282.372 260.627 279.5 260.438C277.314 259.902 275.128 259.366 272.875 258.813C269.719 257.637 269.719 257.637 266.5 256.438C264.912 255.551 263.324 254.664 261.688 253.75C260.306 252.657 258.924 251.564 257.5 250.438C256.077 248.994 254.654 247.551 253.188 246.063C251.971 244.537 250.754 243.01 249.5 241.438C248.716 240.077 247.933 238.716 247.125 237.313C246.589 236.034 246.053 234.755 245.5 233.438C244.51 229.973 244.51 229.973 243.5 226.438C243.397 223.86 243.294 221.282 243.188 218.626C243.291 215.924 243.394 213.222 243.5 210.438C244.057 207.746 244.057 207.746 244.625 205C245.244 203.495 245.862 201.989 246.5 200.438C247.408 198.891 248.315 197.344 249.25 195.75C250.322 194.327 251.395 192.904 252.5 191.438C253.779 190.097 255.058 188.757 256.375 187.376C257.406 186.406 258.438 185.437 259.5 184.438C258.84 184.108 258.18 183.778 257.5 183.438Z" fill="#DDC6A0"/>
<path d="M261.5 177.438C265.182 177.345 265.182 177.345 268.938 177.25C271.433 177.312 273.929 177.374 276.5 177.438C278.48 178.098 280.46 178.758 282.5 179.438C282.5 179.768 282.5 180.098 282.5 180.438C280.541 180.995 278.581 181.552 276.562 182.126C274.232 182.889 271.901 183.652 269.5 184.438C267.891 185.346 266.283 186.253 264.625 187.188C263.264 188.26 261.903 189.333 260.5 190.438C259.242 191.717 257.984 192.996 256.688 194.313C255.636 195.674 254.584 197.036 253.5 198.438C252.716 199.84 251.933 201.243 251.125 202.688C250.589 203.926 250.053 205.163 249.5 206.438C249.17 207.758 248.84 209.078 248.5 210.438C248.397 212.769 248.294 215.099 248.188 217.5C248.291 220.12 248.394 222.739 248.5 225.438C249.036 227.397 249.572 229.357 250.125 231.376C250.909 233.046 251.692 234.717 252.5 236.438C253.449 237.882 254.398 239.325 255.375 240.813C256.406 242.009 257.438 243.205 258.5 244.438C259.449 245.346 260.398 246.253 261.375 247.188C262.406 247.931 263.438 248.673 264.5 249.438C265.882 250.181 267.264 250.923 268.688 251.688C270.575 252.554 270.575 252.554 272.5 253.438C273.49 253.768 274.48 254.098 275.5 254.438C280.017 254.593 280.017 254.593 284.625 254.75C287.884 254.647 291.143 254.544 294.5 254.438C296.191 253.902 297.882 253.366 299.625 252.813C301.543 251.637 301.543 251.637 303.5 250.438C305.109 249.407 306.717 248.376 308.375 247.313C309.736 246.364 311.097 245.416 312.5 244.438C313.49 243.778 314.48 243.118 315.5 242.438C315.17 244.088 314.84 245.738 314.5 247.438C313.984 248.655 313.469 249.872 312.938 251.126C312.133 252.549 311.329 253.972 310.5 255.438C309.304 257.109 308.107 258.779 306.875 260.5C305.431 262.13 303.987 263.759 302.5 265.438C300.974 266.696 299.447 267.954 297.875 269.25C296.101 270.302 294.327 271.354 292.5 272.438C289.313 273.892 289.313 273.892 286.062 275.376C283.567 276.056 281.071 276.737 278.5 277.438C275.344 277.624 272.189 277.809 268.938 278C264.266 277.722 264.266 277.722 259.5 277.438C257.087 276.861 254.674 276.283 252.188 275.688C250.311 274.945 248.434 274.203 246.5 273.438C245.242 272.695 243.984 271.953 242.688 271.188C241.966 270.611 241.244 270.033 240.5 269.438C239.84 271.088 239.18 272.738 238.5 274.438C236.768 276.851 236.768 276.851 235 279.313C233.515 281.334 232.03 283.356 230.5 285.438C228.768 288.119 227.035 290.801 225.25 293.563C222.899 296.966 222.899 296.966 220.5 300.438C218.52 300.933 218.52 300.933 216.5 301.438C217.16 299.788 217.82 298.138 218.5 296.438C221.305 292.292 224.11 288.147 227 283.876C229.805 279.771 232.61 275.667 235.5 271.438C236.16 270.118 236.82 268.798 237.5 267.438C236.531 266.427 235.561 265.417 234.562 264.376C233.222 263.076 231.881 261.777 230.5 260.438C229.283 258.726 228.066 257.014 226.812 255.25C225.719 253.332 224.626 251.414 223.5 249.438C222.696 247.664 221.891 245.89 221.062 244.063C220.547 241.877 220.031 239.69 219.5 237.438C219.314 233.994 219.129 230.549 218.938 227C219.123 223.515 219.309 220.029 219.5 216.438C220.139 214.107 220.779 211.777 221.438 209.376C222.448 207.416 223.459 205.457 224.5 203.438C225.861 201.355 227.222 199.272 228.625 197.126C230.234 195.249 231.842 193.372 233.5 191.438C235.253 189.974 237.006 188.509 238.812 187C240.689 185.825 242.566 184.649 244.5 183.438C246.604 182.469 248.707 181.499 250.875 180.5C253.659 179.48 253.659 179.48 256.5 178.438C258.15 178.108 259.8 177.778 261.5 177.438ZM257.5 183.438C254.984 184.572 252.467 185.707 249.875 186.876C245.729 189.134 245.729 189.134 241.5 191.438C239.974 192.717 238.447 193.996 236.875 195.313C235.761 196.674 234.648 198.036 233.5 199.438C232.386 201.15 231.273 202.862 230.125 204.626C229.259 206.214 228.393 207.802 227.5 209.438C226.51 211.913 226.51 211.913 225.5 214.438C225.17 216.418 224.84 218.398 224.5 220.438C224.397 222.975 224.294 225.512 224.188 228.126C224.291 230.869 224.394 233.612 224.5 236.438C225.016 238.356 225.531 240.274 226.062 242.25C226.867 243.962 227.671 245.674 228.5 247.438C229.572 249.335 230.645 251.233 231.75 253.188C233.606 255.787 233.606 255.787 235.5 258.438C236.717 259.696 237.934 260.954 239.188 262.25C240.611 263.302 242.034 264.354 243.5 265.438C245.542 266.552 247.584 267.666 249.688 268.813C251.606 269.679 253.524 270.546 255.5 271.438C257.15 271.768 258.8 272.098 260.5 272.438C263.037 272.52 265.574 272.603 268.188 272.688C272.302 272.564 272.302 272.564 276.5 272.438C278.274 272.067 280.048 271.695 281.875 271.313C283.401 270.694 284.928 270.075 286.5 269.438C288.274 268.489 290.048 267.541 291.875 266.563C293.401 265.532 294.928 264.5 296.5 263.438C297.366 262.489 298.232 261.541 299.125 260.563C299.579 259.862 300.033 259.16 300.5 258.438C298.365 258.933 298.365 258.933 296.188 259.438C293.372 259.933 293.372 259.933 290.5 260.438C287.87 260.624 287.87 260.624 285.188 260.813C282.372 260.627 282.372 260.627 279.5 260.438C277.314 259.902 275.128 259.366 272.875 258.813C269.719 257.637 269.719 257.637 266.5 256.438C264.912 255.551 263.324 254.664 261.688 253.75C260.306 252.657 258.924 251.564 257.5 250.438C256.077 248.994 254.654 247.551 253.188 246.063C251.971 244.537 250.754 243.01 249.5 241.438C248.716 240.077 247.933 238.716 247.125 237.313C246.589 236.034 246.053 234.755 245.5 233.438C244.51 229.973 244.51 229.973 243.5 226.438C243.397 223.86 243.294 221.282 243.188 218.626C243.291 215.924 243.394 213.222 243.5 210.438C244.057 207.746 244.057 207.746 244.625 205C245.244 203.495 245.862 201.989 246.5 200.438C247.408 198.891 248.315 197.344 249.25 195.75C250.322 194.327 251.395 192.904 252.5 191.438C253.779 190.097 255.058 188.757 256.375 187.376C257.406 186.406 258.438 185.437 259.5 184.438C258.84 184.108 258.18 183.778 257.5 183.438Z" fill="#F3E3BA"/>
<path d="M191.5 372.438C194.47 372.438 197.44 372.438 200.5 372.438C201.758 374.169 203.016 375.903 204.312 377.688C205.694 380.246 207.076 382.803 208.5 385.438C210.624 388.986 212.749 392.533 214.938 396.188C217.691 400.766 217.691 400.766 220.5 405.438C220.995 405.933 220.995 405.933 221.5 406.438C223.521 402.849 225.543 399.26 227.625 395.562C229.894 391.562 232.163 387.56 234.5 383.438C236.48 380.138 238.46 376.838 240.5 373.438C240.83 373.107 241.16 372.778 241.5 372.438C244.47 372.438 247.44 372.438 250.5 372.438C250.5 390.257 250.5 408.077 250.5 426.438C247.53 426.438 244.56 426.438 241.5 426.438C241.005 409.112 241.005 409.112 240.5 391.438C238.438 395.109 236.375 398.78 234.25 402.562C232.023 406.481 229.795 410.399 227.5 414.438C226.18 416.418 224.86 418.398 223.5 420.438C221.85 420.438 220.2 420.438 218.5 420.438C215.757 415.983 213.014 411.528 210.188 406.938C207.651 402.483 205.114 398.028 202.5 393.438C202.17 404.658 201.84 415.877 201.5 427.438C198.2 427.438 194.9 427.438 191.5 427.438C191.5 409.288 191.5 391.138 191.5 372.438Z" fill="#DDC8A2"/>
<path d="M146.5 371.437C149.016 371.334 151.533 371.231 154.125 371.125C158.271 371.279 158.271 371.279 162.5 371.437C164.336 371.973 166.171 372.509 168.062 373.062C169.764 374.238 169.764 374.238 171.5 375.437C171.541 376.468 171.582 377.499 171.625 378.562C171.254 379.511 170.883 380.46 170.5 381.437C170.17 382.097 169.84 382.757 169.5 383.437C167.85 382.983 166.2 382.529 164.5 382.062C162.52 381.526 160.54 380.99 158.5 380.437C156.891 380.313 155.283 380.19 153.625 380.062C152.264 380.186 150.903 380.309 149.5 380.437C147.025 381.922 147.025 381.922 144.5 383.437C144.273 384.592 144.046 385.747 143.812 386.937C144.153 388.669 144.153 388.669 144.5 390.437C145.614 391.303 145.614 391.303 146.75 392.187C147.987 392.6 149.225 393.012 150.5 393.437C152.439 393.911 154.378 394.386 156.375 394.875C158.396 395.39 160.418 395.906 162.5 396.437C163.985 397.035 165.47 397.633 167 398.249C168.155 398.971 169.31 399.693 170.5 400.437C171.325 401.324 172.15 402.211 173 403.125C173.495 404.218 173.99 405.311 174.5 406.437C174.644 407.922 174.789 409.407 174.938 410.937C174.793 412.422 174.649 413.907 174.5 415.437C174.108 416.53 173.716 417.623 173.312 418.749C172.714 419.636 172.116 420.523 171.5 421.437C170.716 422.179 169.933 422.922 169.125 423.687C168.259 424.264 167.393 424.842 166.5 425.437C164.85 426.097 163.2 426.757 161.5 427.437C158.798 427.561 156.096 427.684 153.312 427.812C150.404 427.688 147.496 427.565 144.5 427.437C142.541 426.818 140.581 426.2 138.562 425.562C136.552 424.51 136.552 424.51 134.5 423.437C133.84 422.777 133.18 422.117 132.5 421.437C132.83 419.787 133.16 418.137 133.5 416.437C134.49 415.447 135.48 414.457 136.5 413.437C138.48 414.303 138.48 414.303 140.5 415.187C141.82 415.929 143.14 416.672 144.5 417.437C145.49 417.767 146.48 418.097 147.5 418.437C150.192 418.53 150.192 418.53 152.938 418.625C154.773 418.563 156.609 418.501 158.5 418.437C159.82 417.777 161.14 417.117 162.5 416.437C162.747 415.282 162.995 414.127 163.25 412.937C163.332 411.782 163.415 410.627 163.5 409.437C163.5 408.777 163.5 408.117 163.5 407.437C162.242 406.963 160.984 406.488 159.688 405.999C157.976 405.484 156.264 404.968 154.5 404.437C152.664 403.983 150.829 403.529 148.938 403.062C147.143 402.526 145.349 401.99 143.5 401.437C141.994 400.633 140.489 399.828 138.938 398.999C137.803 398.154 136.669 397.308 135.5 396.437C134.84 395.117 134.18 393.797 133.5 392.437C133.376 390.828 133.253 389.22 133.125 387.562C133.249 385.871 133.372 384.179 133.5 382.437C134.304 380.766 134.304 380.766 135.125 379.062C135.909 378.196 136.692 377.33 137.5 376.437C138.511 375.674 139.521 374.911 140.562 374.125C141.532 373.568 142.501 373.011 143.5 372.437C144.49 372.107 145.48 371.777 146.5 371.437Z" fill="#DDC8A2"/>
<path d="M502.5 371.437C504.748 371.334 506.996 371.231 509.312 371.125C511.684 371.228 514.056 371.331 516.5 371.437C518.253 371.87 520.006 372.303 521.812 372.749C523.029 373.306 524.246 373.863 525.5 374.437C525.995 375.922 525.995 375.922 526.5 377.437C526.294 378.509 526.087 379.582 525.875 380.687C525.421 381.595 524.967 382.502 524.5 383.437C522.025 382.942 522.025 382.942 519.5 382.437C517.85 381.777 516.2 381.117 514.5 380.437C511.778 380.251 511.778 380.251 509 380.062C507.185 380.186 505.37 380.309 503.5 380.437C502.448 380.994 501.396 381.551 500.312 382.125C499.714 382.888 499.116 383.651 498.5 384.437C498.5 386.087 498.5 387.737 498.5 389.437C499.82 390.427 501.14 391.417 502.5 392.437C505.264 393.241 508.028 394.046 510.875 394.875C513.721 395.72 516.567 396.566 519.5 397.437C521.48 398.757 523.46 400.077 525.5 401.437C526.284 402.365 527.067 403.293 527.875 404.249C528.411 405.301 528.947 406.353 529.5 407.437C529.644 408.592 529.789 409.747 529.938 410.937C529.793 412.092 529.649 413.247 529.5 414.437C529.129 415.468 528.758 416.499 528.375 417.562C527.756 418.511 527.138 419.46 526.5 420.437C525.108 421.798 525.108 421.798 523.688 423.187C522.636 423.929 521.584 424.672 520.5 425.437C518.52 426.097 516.54 426.757 514.5 427.437C510.726 427.684 510.726 427.684 506.875 427.937C504.111 427.772 501.347 427.607 498.5 427.437C494.973 426.138 494.973 426.138 491.375 424.812C489.766 423.698 488.158 422.585 486.5 421.437C487.49 418.467 487.49 418.467 488.5 415.437C488.83 414.777 489.16 414.117 489.5 413.437C491.15 414.097 492.8 414.757 494.5 415.437C495.511 415.973 496.521 416.509 497.562 417.062C498.862 417.516 500.161 417.97 501.5 418.437C503.542 418.54 505.584 418.643 507.688 418.749C510.565 418.595 510.565 418.595 513.5 418.437C514.82 417.777 516.14 417.117 517.5 416.437C517.83 415.303 518.16 414.168 518.5 412.999C518.5 411.824 518.5 410.648 518.5 409.437C517.18 408.447 515.86 407.457 514.5 406.437C511.736 405.633 508.972 404.828 506.125 403.999C503.279 403.154 500.433 402.308 497.5 401.437C495.52 400.117 493.54 398.797 491.5 397.437C490.51 396.117 489.52 394.797 488.5 393.437C488.17 392.447 487.84 391.457 487.5 390.437C487.397 389.344 487.294 388.251 487.188 387.125C487.291 385.908 487.394 384.691 487.5 383.437C488.057 382.385 488.614 381.333 489.188 380.249C489.951 379.321 490.714 378.393 491.5 377.437C492.284 376.695 493.067 375.952 493.875 375.187C494.741 374.61 495.607 374.032 496.5 373.437C498.48 372.777 500.46 372.117 502.5 371.437Z" fill="#DDC8A2"/>
<path d="M20.5 371.438C24.367 371.191 24.367 371.19 28.312 370.938C32.365 371.184 32.365 371.185 36.5 371.438C38.418 372.179 40.336 372.923 42.312 373.688C43.694 374.595 45.076 375.502 46.5 376.438C47.49 377.758 48.48 379.077 49.5 380.438C48.448 381.51 47.396 382.582 46.312 383.688C45.054 384.595 43.796 385.502 42.5 386.438C41.139 385.664 41.139 385.664 39.75 384.875C38.636 383.668 38.636 383.668 37.5 382.438C36.51 382.107 35.52 381.778 34.5 381.438C32.582 381.334 30.664 381.231 28.688 381.125C26.646 381.228 24.604 381.332 22.5 381.438C21.345 381.994 20.19 382.551 19 383.125C18.175 383.888 17.35 384.651 16.5 385.438C15.355 386.706 15.355 386.706 14.188 388C13.631 388.805 13.074 389.609 12.5 390.438C12.17 391.428 11.84 392.418 11.5 393.438C11.418 395.169 11.335 396.903 11.25 398.688C11.374 401.533 11.374 401.533 11.5 404.438C11.871 405.717 12.243 406.995 12.625 408.312C13.244 409.344 13.863 410.375 14.5 411.438C15.511 412.387 16.521 413.336 17.562 414.312C19.017 415.365 19.017 415.365 20.5 416.438C21.16 416.768 21.82 417.097 22.5 417.438C25.284 417.624 25.284 417.624 28.125 417.812C31.281 417.626 31.281 417.626 34.5 417.438C35.985 416.572 37.47 415.706 39 414.812C40.155 414.029 41.31 413.246 42.5 412.438C43.82 413.098 45.14 413.757 46.5 414.438C47.49 415.428 48.48 416.418 49.5 417.438C48.84 418.758 48.18 420.077 47.5 421.438C46.572 422.138 45.644 422.84 44.688 423.562C43.636 424.182 42.584 424.799 41.5 425.438C39.85 426.098 38.2 426.757 36.5 427.438C33.963 427.581 31.426 427.726 28.812 427.875C26.069 427.73 23.326 427.587 20.5 427.438C18.664 426.777 16.829 426.118 14.938 425.438C13.473 424.447 12.009 423.457 10.5 422.438C9.201 421.179 7.901 419.921 6.562 418.625C5.552 417.243 4.541 415.862 3.5 414.438C2.861 413.262 2.221 412.086 1.562 410.875C1.212 409.41 0.861 407.946 0.5 406.438C0.335 404.003 0.17 401.57 0 399.062C0.165 396.546 0.33 394.03 0.5 391.438C1.16 389.622 1.82 387.808 2.5 385.938C3.49 384.452 4.48 382.967 5.5 381.438C7.418 379.488 7.418 379.488 9.375 377.499C10.736 376.489 12.098 375.479 13.5 374.438C15.81 373.447 18.12 372.457 20.5 371.438Z" fill="#DDC8A2"/>
<path d="M335.5 371.438C350.68 371.438 365.86 371.438 381.5 371.438C381.5 374.408 381.5 377.378 381.5 380.438C375.56 380.438 369.62 380.438 363.5 380.438C363.5 395.948 363.5 411.458 363.5 427.438C359.87 427.438 356.24 427.438 352.5 427.438C352.5 411.927 352.5 396.417 352.5 380.438C346.89 380.438 341.28 380.438 335.5 380.438C335.5 377.467 335.5 374.497 335.5 371.438Z" fill="#DDC8A2"/>
<path d="M311.5 131.438C312.82 131.438 314.14 131.438 315.5 131.438C315.954 132.839 316.408 134.242 316.875 135.688C317.411 137.255 317.947 138.822 318.5 140.438C319.892 141.645 319.892 141.644 321.312 142.875C322.364 143.39 323.416 143.906 324.5 144.438C326.48 145.098 328.46 145.757 330.5 146.438C330.789 173.167 331.077 199.897 331.375 227.438C331.086 254.167 330.798 280.897 330.5 308.438C326.54 309.428 326.54 309.428 322.5 310.438C321.108 311.645 321.108 311.645 319.688 312.876C318.966 313.721 318.244 314.567 317.5 315.438C316.51 316.428 315.52 317.418 314.5 318.438C313.84 318.107 313.18 317.778 312.5 317.438C313.16 315.788 313.82 314.138 314.5 312.438C315.779 311.179 317.058 309.922 318.375 308.626C320.417 307.048 320.417 307.048 322.5 305.438C323.82 305.438 325.14 305.438 326.5 305.438C326.624 279.739 326.747 254.039 326.875 227.562C326.751 201.781 326.628 176 326.5 149.438C324.52 148.777 322.54 148.118 320.5 147.438C319.84 147.107 319.18 146.778 318.5 146.438C317.51 148.912 317.51 148.912 316.5 151.438C315.51 153.026 314.52 154.614 313.5 156.25C312.51 157.632 311.52 159.013 310.5 160.438C309.84 160.438 309.18 160.438 308.5 160.438C308.83 158.788 309.16 157.138 309.5 155.438C311.418 152.807 311.418 152.807 313.375 150.125C314.406 148.248 315.438 146.372 316.5 144.438C315.819 142.993 315.139 141.551 314.438 140.062C313.468 138.867 312.499 137.671 311.5 136.438C311.5 134.788 311.5 133.138 311.5 131.438Z" fill="#F3E3BA"/>
<path d="M395.499 371.438C399.13 371.438 402.76 371.438 406.5 371.438C406.5 389.917 406.5 408.397 406.5 427.438C403.2 427.438 399.9 427.438 396.5 427.438C396.17 427.107 395.84 426.778 395.499 426.438C395.478 417.342 395.458 408.247 395.438 398.875C395.457 389.82 395.478 380.767 395.499 371.438Z" fill="#DDC8A2"/>
<path d="M159.5 69.4375C160.49 69.4375 161.48 69.4375 162.5 69.4375C162.273 70.2005 162.046 70.9635 161.812 71.7495C161.163 73.5755 161.163 73.5755 160.5 75.4375C159.737 77.0465 158.974 78.6555 158.188 80.3125C157.301 82.3335 156.414 84.3545 155.5 86.4375C154.613 88.9955 153.726 91.5525 152.812 94.1875C152.049 96.9095 151.286 99.6325 150.5 102.438C149.85 105.841 149.85 105.841 149.188 109.312C148.961 111.993 148.734 114.675 148.5 117.438C148.397 121.707 148.294 125.976 148.188 130.375C148.291 134.685 148.394 138.997 148.5 143.438C149.057 147.644 149.057 147.644 149.625 151.938C150.244 154.412 150.862 156.888 151.5 159.438C152.346 162.345 153.191 165.253 154.062 168.249C155.197 171.281 156.331 174.313 157.5 177.438C159.232 180.882 160.965 184.327 162.75 187.876C164.317 190.701 165.885 193.526 167.5 196.438C168.16 197.428 168.82 198.418 169.5 199.438C169.17 200.758 168.84 202.077 168.5 203.438C166.85 201.788 165.2 200.138 163.5 198.438C162.201 196.333 160.901 194.23 159.562 192.062C157.552 188.289 157.552 188.289 155.5 184.438C154.428 181.963 153.355 179.487 152.25 176.938C151.342 174.463 150.435 171.987 149.5 169.438C148.386 165.973 148.386 165.973 147.25 162.438C146.673 160.128 146.095 157.818 145.5 155.438C145.087 153.168 144.675 150.899 144.25 148.562C143.879 144.541 143.879 144.541 143.5 140.438C143.376 136.56 143.253 132.682 143.125 128.688C143.249 124.644 143.372 120.602 143.5 116.438C144.036 113.158 144.572 109.879 145.125 106.5C145.909 103.51 146.692 100.519 147.5 97.4375C148.449 94.4675 149.398 91.4975 150.375 88.4375C151.406 85.7975 152.438 83.1575 153.5 80.4375C155.078 77.1895 155.078 77.1895 156.688 73.8755C157.616 72.4105 158.544 70.9465 159.5 69.4375Z" fill="white"/>
<path d="M219.5 132.438C220.82 132.438 222.14 132.438 223.5 132.438C223.5 134.087 223.5 135.737 223.5 137.438C222.592 138.798 221.685 140.161 220.75 141.562C219.678 142.842 218.605 144.12 217.5 145.438C216.18 146.428 214.86 147.418 213.5 148.438C212.18 148.768 210.86 149.097 209.5 149.438C209.253 172.723 209.005 196.008 208.75 219.999C208.668 243.244 208.585 266.489 208.5 290.438C207.51 290.438 206.52 290.438 205.5 290.438C205.335 266.74 205.17 243.042 205 218.626C205.165 194.804 205.33 170.982 205.5 146.438C208.14 145.447 210.78 144.457 213.5 143.438C214.469 142.488 215.439 141.54 216.438 140.562C217.118 139.531 217.799 138.5 218.5 137.438C218.83 135.788 219.16 134.138 219.5 132.438Z" fill="#F3E3BA"/>
<path d="M455.5 371.438L465.5 375.438C466.676 376.633 467.851 377.831 469.062 379.062C469.867 380.176 470.671 381.289 471.5 382.438L472.5 384.438C472.655 387.221 472.655 387.222 472.812 390.062C472.709 392.166 472.606 394.27 472.5 396.438C472.005 397.901 471.51 399.367 471 400.876C470.175 402.051 469.35 403.227 468.5 404.438C467.18 405.406 465.86 406.377 464.5 407.376C462.52 408.396 462.52 408.396 460.5 409.438L456.5 410.438C453.283 410.458 450.065 410.478 446.75 410.499C443.697 410.479 440.645 410.458 437.5 410.438V426.438H427.5V371.438C431.914 371.355 436.327 371.273 440.875 371.188C448.114 371.311 448.114 371.311 455.5 371.438ZM437.5 380.438V401.438C440.688 401.459 443.781 401.48 446.875 401.5C450.148 401.479 453.324 401.459 456.5 401.438L458.5 400.438C459.222 399.759 459.924 399.098 460.625 398.438C461.263 397.419 461.881 396.428 462.5 395.438C462.628 393.867 462.751 392.339 462.875 390.813C462.747 389.327 462.624 387.882 462.5 386.438L460.5 383.438L454.5 380.438C450.018 380.343 450.018 380.343 445.625 380.25C441.522 380.345 441.522 380.345 437.5 380.438Z" fill="#DDC8A2"/>
<path d="M286.5 197.438C287.16 197.438 287.82 197.438 288.5 197.438C288.974 199.355 289.449 201.273 289.938 203.249C290.453 205.291 290.969 207.333 291.5 209.438C292.49 210.428 293.48 211.418 294.5 212.438C297.315 213.211 297.315 213.211 300.188 214C301.941 214.475 303.694 214.949 305.5 215.438C305.5 216.098 305.5 216.757 305.5 217.438C303.768 217.87 302.035 218.304 300.25 218.75C298.352 219.307 296.455 219.863 294.5 220.438C293.654 221.118 292.809 221.799 291.938 222.5C291.463 223.47 290.989 224.438 290.5 225.438C290.129 227.191 289.758 228.944 289.375 230.75C288.942 233.071 288.942 233.07 288.5 235.438C287.84 235.438 287.18 235.438 286.5 235.438C285.984 233.52 285.469 231.601 284.938 229.625C284.463 227.583 283.989 225.542 283.5 223.438C283.17 222.447 282.84 221.457 282.5 220.438C280.334 219.922 278.169 219.406 275.938 218.875C273.813 218.4 271.689 217.926 269.5 217.438C269.5 216.777 269.5 216.118 269.5 215.438C271.398 215.067 273.295 214.694 275.25 214.312C277.312 213.693 279.375 213.075 281.5 212.438C282.387 211.199 283.274 209.962 284.188 208.688C284.621 207.286 285.054 205.883 285.5 204.438C285.809 202.457 285.809 202.457 286.125 200.438C286.249 199.447 286.372 198.457 286.5 197.438Z" fill="#F3E3BA"/>
<path d="M206.5 217.438C207.16 218.428 207.82 219.418 208.5 220.438C208.541 232.05 208.582 243.661 208.625 255.625C208.584 267.113 208.543 278.601 208.5 290.438C207.51 290.438 206.52 290.438 205.5 290.438C205.479 278.95 205.458 267.462 205.438 255.625C205.457 244.013 205.479 232.401 205.5 220.438C205.83 219.447 206.16 218.457 206.5 217.438Z" fill="#F3E3BA"/>
<path d="M151.5 166.438C152.16 166.438 152.82 166.438 153.5 166.438C154.181 168.232 154.861 170.027 155.562 171.876C156.532 174.371 157.501 176.866 158.5 179.438C160.047 182.448 161.594 185.46 163.188 188.562C164.611 191.161 166.034 193.76 167.5 196.438C168.16 197.428 168.82 198.418 169.5 199.438C169.17 200.758 168.84 202.077 168.5 203.438C166.025 200.963 166.025 200.963 163.5 198.438C162.201 196.333 160.901 194.23 159.562 192.062C157.552 188.289 157.552 188.289 155.5 184.438C153.706 180.385 153.706 180.385 151.875 176.25C151.091 174.002 150.308 171.753 149.5 169.438C150.16 168.447 150.82 167.457 151.5 166.438Z" fill="white"/>
<path d="M351.5 41.4375C351.83 41.4375 352.16 41.4375 352.5 41.4375C352.83 43.0465 353.16 44.6555 353.5 46.3125C354.16 48.0035 354.82 49.6945 355.5 51.4375C357.047 51.9325 358.594 52.4275 360.188 52.9375C361.611 53.1025 363.034 53.2675 364.5 53.4375C364.5 54.0975 364.5 54.7575 364.5 55.4375C362.891 55.6025 361.283 55.7675 359.625 55.9375C357.934 56.4325 356.242 56.9275 354.5 57.4375C354.005 59.1285 353.51 60.8195 353 62.5625C352.835 64.1715 352.67 65.7805 352.5 67.4375C351.84 67.4375 351.18 67.4375 350.5 67.4375C350.191 65.9935 349.881 64.5505 349.562 63.0625C349.212 61.5365 348.861 60.0095 348.5 58.4375C347.51 57.7775 346.52 57.1175 345.5 56.4375C343.85 56.1075 342.2 55.7775 340.5 55.4375C340.83 54.7775 341.16 54.1175 341.5 53.4375C342.614 53.0865 343.727 52.7365 344.875 52.3755C346.071 51.7355 347.268 51.0965 348.5 50.4375C349.119 48.8905 349.737 47.3435 350.375 45.7495C350.932 43.6155 350.932 43.6155 351.5 41.4375Z" fill="#D7CCB0"/>
<path d="M237.5 268.438C238.49 269.428 239.48 270.418 240.5 271.438C238.427 274.532 238.427 274.532 236.312 277.688C234.394 280.246 232.476 282.803 230.5 285.438C228.726 288.181 226.952 290.924 225.125 293.75C223.599 295.957 222.072 298.164 220.5 300.438C218.52 300.933 218.52 300.933 216.5 301.438C217.16 299.788 217.82 298.138 218.5 296.438C222.707 290.188 222.707 290.188 227 283.812C229.805 279.728 232.61 275.644 235.5 271.438C236.16 270.447 236.82 269.457 237.5 268.438Z" fill="#F3E3BA"/>
<path d="M159.5 69.4375C160.49 69.4375 161.48 69.4375 162.5 69.4375C162.273 70.2005 162.046 70.9635 161.812 71.7495C161.163 73.5755 161.163 73.5755 160.5 75.4375C159.716 77.1495 158.933 78.8615 158.125 80.6255C157.259 82.5435 156.393 84.4615 155.5 86.4375C154.819 88.4385 154.139 90.4385 153.438 92.4995C152.478 94.9445 152.478 94.9445 151.5 97.4375C149.52 98.4275 149.52 98.4275 147.5 99.4375C147.686 98.2825 147.871 97.1275 148.062 95.9375C148.537 94.1225 149.011 92.3075 149.5 90.4375C150.634 87.7155 151.769 84.9925 152.938 82.1875C154.113 79.6295 155.289 77.0725 156.5 74.4375C157.49 72.7875 158.48 71.1375 159.5 69.4375Z" fill="white"/>
<path d="M206.5 179.438C206.83 179.438 207.16 179.438 207.5 179.438C207.83 182.737 208.16 186.037 208.5 189.438C208.521 194.759 208.541 200.08 208.562 205.562C208.542 210.471 208.521 215.379 208.5 220.438C207.51 220.438 206.52 220.438 205.5 220.438C205.479 216.457 205.458 212.476 205.438 208.375C205.457 203.775 205.479 199.176 205.5 194.438C205.665 191.427 205.83 188.415 206 185.312C206.165 183.373 206.33 181.436 206.5 179.438Z" fill="#F3E3BA"/>
<path d="M368.5 222.438C369.16 222.768 369.82 223.097 370.5 223.438C369.201 225.077 369.201 225.077 367.875 226.749C366.431 228.296 364.987 229.844 363.5 231.438C361.107 233.396 358.715 235.356 356.25 237.375C354.023 239.045 351.795 240.717 349.5 242.438C348.51 242.768 347.52 243.097 346.5 243.438C346.17 242.777 345.84 242.118 345.5 241.438C346.82 240.117 348.14 238.798 349.5 237.438C351.418 235.993 353.336 234.551 355.312 233.062C357.354 231.536 359.396 230.01 361.5 228.438C362.861 227.242 364.222 226.046 365.625 224.812C366.574 224.029 367.523 223.246 368.5 222.438Z" fill="white"/>
<path d="M206.5 276.438C206.83 276.438 207.16 276.438 207.5 276.438C207.665 278.438 207.83 280.438 208 282.499C208.165 285.119 208.33 287.739 208.5 290.438C208.438 293.161 208.376 295.882 208.312 298.688C208.374 300.915 208.436 303.142 208.5 305.438C209.82 306.098 211.14 306.757 212.5 307.438C212.5 308.098 212.5 308.757 212.5 309.438C210.19 309.107 207.88 308.778 205.5 308.438C205.335 305.736 205.17 303.034 205 300.25C205.247 295.393 205.247 295.392 205.5 290.438C205.665 287.757 205.83 285.075 206 282.312C206.165 280.373 206.33 278.436 206.5 276.438Z" fill="#F3E3BA"/>
<path d="M219.5 132.438C220.82 132.438 222.14 132.438 223.5 132.438C223.5 134.087 223.5 135.737 223.5 137.438C222.592 138.798 221.685 140.161 220.75 141.562C219.678 142.842 218.605 144.12 217.5 145.438C216.18 146.428 214.86 147.418 213.5 148.438C212.51 148.107 211.52 147.778 210.5 147.438C210.83 146.447 211.16 145.457 211.5 144.438C212.954 143.324 212.954 143.324 214.438 142.188C215.448 141.28 216.459 140.373 217.5 139.438C217.871 138.179 218.242 136.921 218.625 135.625C218.914 134.573 219.202 133.521 219.5 132.438Z" fill="#F3E3BA"/>
<path d="M265.5 284.438C266.49 284.438 267.48 284.438 268.5 284.438C268.5 290.707 268.5 296.977 268.5 303.438C267.51 303.438 266.52 303.438 265.5 303.438C265.5 297.168 265.5 290.898 265.5 284.438Z" fill="#F3E3BA"/>
<path d="M206.5 264.438C207.16 265.428 207.82 266.418 208.5 267.438C208.541 271.295 208.582 275.151 208.625 279.125C208.584 282.858 208.543 286.592 208.5 290.438C207.51 290.438 206.52 290.438 205.5 290.438C205.479 287.076 205.458 283.714 205.438 280.25C205.457 276.682 205.479 273.114 205.5 269.438C205.83 267.788 206.16 266.138 206.5 264.438Z" fill="#F3E3BA"/>
<path d="M304.375 372.25C306.004 372.621 307.634 372.992 309.313 373.375C310.653 373.994 311.994 374.612 313.375 375.25C314.592 376.054 315.809 376.859 317.063 377.688C318.156 378.863 319.249 380.039 320.375 381.25C321.509 383.106 322.644 384.962 323.813 386.875C325.081 390.031 325.081 390.031 326.375 393.25C326.581 395.251 326.788 397.251 327 399.312C326.794 401.272 326.587 403.231 326.375 405.25C325.818 407.189 325.261 409.128 324.687 411.125C323.924 412.816 323.161 414.508 322.375 416.25C321.653 417.364 320.931 418.477 320.187 419.625C318.795 420.924 318.795 420.924 317.375 422.25C315.849 423.178 314.322 424.106 312.75 425.062C311.306 425.784 309.862 426.506 308.375 427.25L305.375 428.25C303.044 428.374 300.714 428.497 298.313 428.625C294.383 428.439 294.383 428.439 290.375 428.25C287.683 427.291 287.683 427.291 284.937 426.312C283.432 425.302 281.926 424.291 280.375 423.25C278.911 421.847 277.446 420.445 275.937 419C274.174 416.649 274.174 416.649 272.375 414.25C271.715 412.786 271.055 411.321 270.375 409.812C269.88 407.554 269.88 407.554 269.375 405.25C269.251 403.6 269.127 401.95 269 400.25C269.186 397.775 269.186 397.775 269.375 395.25C269.726 393.724 270.076 392.197 270.437 390.625C271.077 389.181 271.716 387.737 272.375 386.25C273.427 384.847 274.479 383.445 275.563 382C276.821 380.763 278.079 379.525 279.375 378.25C280.778 377.281 282.18 376.311 283.625 375.312C284.862 374.632 286.1 373.951 287.375 373.25L290.375 372.25C292.561 372.168 294.747 372.085 297 372C299.434 372.082 301.867 372.165 304.375 372.25ZM291.375 381.249L289.375 382.249C288.398 382.95 287.449 383.632 286.5 384.312C285.437 385.31 284.406 386.28 283.375 387.249C282.567 388.503 281.784 389.72 281 390.938C280.447 392.403 279.911 393.826 279.375 395.249L278.875 400.249L279.375 405.249C279.885 406.694 280.38 408.096 280.875 409.499C282.138 411.393 282.138 411.393 283.375 413.249C284.544 414.439 285.678 415.594 286.813 416.749C288.364 417.599 289.869 418.424 291.375 419.249C293.712 419.398 295.981 419.543 298.25 419.688C300.332 419.538 302.354 419.393 304.375 419.249L306.375 418.249C307.161 417.718 307.924 417.202 308.687 416.688C309.601 415.859 310.488 415.053 311.375 414.249C312.795 412.481 312.795 412.481 314.187 410.749C314.93 409.219 315.653 407.734 316.375 406.249C316.524 404.124 316.668 402.061 316.813 399.999C316.664 398.044 316.519 396.147 316.375 394.249L314.375 390.249C313.78 389.399 313.202 388.574 312.625 387.749C311.489 386.486 311.489 386.486 310.375 385.249C309.546 384.463 308.741 383.7 307.937 382.938C306.726 382.364 305.551 381.806 304.375 381.249C302.08 381.143 299.852 381.04 297.625 380.938C295.5 381.043 293.437 381.146 291.375 381.249Z" fill="#DDC8A2"/>
<path d="M96.375 371.25C98.004 371.621 99.6345 371.992 101.313 372.375C102.653 372.994 103.994 373.612 105.375 374.25C106.592 375.054 107.809 375.859 109.063 376.688C110.156 377.863 111.249 379.039 112.375 380.25C113.509 382.106 114.644 383.962 115.813 385.875C117.081 389.031 117.081 389.031 118.375 392.25C118.581 394.251 118.788 396.251 119 398.312C118.794 400.272 118.587 402.231 118.375 404.25C117.818 406.189 117.261 408.128 116.687 410.125C115.924 411.816 115.161 413.508 114.375 415.25C113.653 416.364 112.931 417.477 112.187 418.625C110.795 419.924 110.795 419.924 109.375 421.25C107.849 422.178 106.322 423.106 104.75 424.062C103.306 424.784 101.862 425.506 100.375 426.25L97.375 427.25C95.0442 427.374 92.7143 427.497 90.3135 427.625C86.3835 427.439 86.383 427.439 82.375 427.25C79.683 426.291 79.6825 426.291 76.9365 425.312C75.4317 424.302 73.9258 423.291 72.375 422.25C70.911 420.847 69.4455 419.445 67.9365 418C66.1737 415.649 66.1739 415.649 64.375 413.25C63.715 411.786 63.055 410.321 62.375 408.812C61.8801 406.554 61.88 406.554 61.375 404.25C61.251 402.6 61.127 400.95 61 399.25C61.186 396.775 61.186 396.775 61.375 394.25C61.726 392.724 62.0755 391.197 62.4365 389.625C63.0765 388.181 63.716 386.737 64.375 385.25C65.427 383.847 66.4795 382.445 67.5635 381C68.8214 379.763 70.0791 378.525 71.375 377.25C72.778 376.281 74.18 375.311 75.625 374.312C76.8619 373.632 78.1001 372.951 79.375 372.25L82.375 371.25C84.561 371.168 86.747 371.085 89 371C91.434 371.082 93.867 371.165 96.375 371.25ZM83.375 380.249L81.375 381.249C80.398 381.95 79.449 382.632 78.5 383.312C77.4371 384.31 76.4059 385.28 75.375 386.249C74.567 387.503 73.784 388.72 73 389.938C72.4471 391.403 71.9109 392.826 71.375 394.249L70.875 399.249L71.375 404.249C71.8849 405.694 72.38 407.096 72.875 408.499C74.1379 410.393 74.1382 410.393 75.375 412.249C76.544 413.439 77.6785 414.594 78.8135 415.749C80.3643 416.599 81.8691 417.424 83.375 418.249C85.712 418.398 87.981 418.543 90.25 418.688C92.332 418.538 94.354 418.393 96.375 418.249L98.375 417.249C99.1608 416.718 99.9237 416.202 100.687 415.688C101.601 414.859 102.488 414.053 103.375 413.249C104.795 411.481 104.795 411.481 106.187 409.749C106.93 408.219 107.653 406.734 108.375 405.249C108.524 403.124 108.668 401.061 108.813 398.999C108.664 397.044 108.519 395.147 108.375 393.249L106.375 389.249C105.78 388.399 105.202 387.574 104.625 386.749C103.489 385.486 103.489 385.486 102.375 384.249C101.546 383.463 100.741 382.7 99.9365 381.938C98.7257 381.364 97.5509 380.806 96.375 380.249C94.08 380.143 91.852 380.04 89.625 379.938C87.5 380.043 85.437 380.146 83.375 380.249Z" fill="#DDC8A2"/>
</svg>
